<svg xmlns="http://www.w3.org/2000/svg" xmlns:xlink="http://www.w3.org/1999/xlink" viewBox="0 0 518 518">
  <defs>
    <style>
      .cls-1 {
        fill: #001a3b;
      }

      .cls-2 {
        fill: url(#Безымянный_градиент_23);
      }

      .cls-3 {
        fill: url(#Безымянный_градиент_23-2);
      }

      .cls-4 {
        fill: url(#Безымянный_градиент_23-3);
      }

      .cls-5 {
        fill: url(#Безымянный_градиент_23-8);
      }

      .cls-6 {
        fill: url(#Безымянный_градиент_23-9);
      }

      .cls-7 {
        fill: url(#Безымянный_градиент_23-10);
      }

      .cls-8 {
        fill: url(#Безымянный_градиент_23-11);
      }

      .cls-9 {
        fill: url(#Безымянный_градиент_23-13);
      }

      .cls-10 {
        fill: url(#Безымянный_градиент_23-14);
      }

      .cls-11 {
        fill: url(#Безымянный_градиент_23-15);
      }

      .cls-12 {
        fill: url(#Безымянный_градиент_23-16);
      }
    </style>
    <linearGradient id="Безымянный_градиент_23" data-name="Безымянный градиент 23" x1="209.24" y1="816.81" x2="328.3" y2="816.81" gradientTransform="matrix(3.78, 0, 0, -3.78, -756.83, 3355.22)" gradientUnits="userSpaceOnUse">
      <stop offset="0" stop-color="#51d9e5"/>
      <stop offset="1" stop-color="#e551e4"/>
    </linearGradient>
    <linearGradient id="Безымянный_градиент_23-2" x1="209.24" y1="816.81" x2="328.3" y2="816.81" xlink:href="#Безымянный_градиент_23"/>
    <linearGradient id="Безымянный_градиент_23-3" x1="209.24" y1="816.81" x2="328.3" y2="816.81" xlink:href="#Безымянный_градиент_23"/>
    <linearGradient id="Безымянный_градиент_23-8" x1="209.24" y1="822.18" x2="328.3" y2="822.18" xlink:href="#Безымянный_градиент_23"/>
    <linearGradient id="Безымянный_градиент_23-9" x1="209.24" y1="819.73" x2="328.3" y2="819.73" xlink:href="#Безымянный_градиент_23"/>
    <linearGradient id="Безымянный_градиент_23-10" x1="209.24" y1="815.79" x2="328.3" y2="815.79" xlink:href="#Безымянный_градиент_23"/>
    <linearGradient id="Безымянный_градиент_23-11" x1="209.24" y1="817.99" x2="328.3" y2="817.99" xlink:href="#Безымянный_градиент_23"/>
    <linearGradient id="Безымянный_градиент_23-13" x1="209.24" y1="820.17" x2="328.3" y2="820.17" xlink:href="#Безымянный_градиент_23"/>
    <linearGradient id="Безымянный_градиент_23-14" x1="209.24" y1="820.92" x2="328.3" y2="820.92" xlink:href="#Безымянный_градиент_23"/>
    <linearGradient id="Безымянный_градиент_23-15" x1="209.24" y1="819.81" x2="328.3" y2="819.81" xlink:href="#Безымянный_градиент_23"/>
    <linearGradient id="Безымянный_градиент_23-16" x1="209.24" y1="810.82" x2="328.3" y2="810.82" xlink:href="#Безымянный_градиент_23"/>
  </defs>
  <g id="Слой_2" data-name="Слой 2">
    <g id="svg8">
      <g id="layer2">
        <rect id="rect8964" class="cls-1" width="518" height="517.97" rx="30"/>
        <g id="g4784">
          <path id="path4738" class="cls-2" d="M39,253.9a5,5,0,0,0-5,5v18.3a5,5,0,0,0,5,5,5,5,0,0,0,5-5V258.9A5,5,0,0,0,39,253.9Z"/>
          <path id="path4740" class="cls-3" d="M59,238a5,5,0,0,0-5,5v50.1a5,5,0,0,0,5,5,5.1,5.1,0,0,0,5-5h0V243a5.1,5.1,0,0,0-5-5Z"/>
          <path id="path4742" class="cls-4" d="M79,223.4a5,5,0,0,0-5,5h0v79.3a5,5,0,0,0,5,5h0a5.1,5.1,0,0,0,5-5V228.4A5.1,5.1,0,0,0,79,223.4Z"/>
          <path id="path4744" class="cls-2" d="M99,210.9a5,5,0,0,0-5,5V320.2a5,5,0,0,0,5,5,5,5,0,0,0,5-5V215.9A5,5,0,0,0,99,210.9Z"/>
          <path id="path4746" class="cls-4" d="M119,203.5a5,5,0,0,0-5,5V327.6a5,5,0,0,0,5,5,5,5,0,0,0,5-5h0V208.5a5,5,0,0,0-5-5Z"/>
          <path id="path4748" class="cls-4" d="M139,199.2a5,5,0,0,0-5,5h0V331.9a5,5,0,0,0,5,5h0a5,5,0,0,0,5-5V204.2a5,5,0,0,0-5-5Z"/>
          <path id="path4750" class="cls-4" d="M159,195.7a5,5,0,0,0-5,5V335.4a5,5,0,0,0,5,5,5,5,0,0,0,5-5V200.7A5,5,0,0,0,159,195.7Z"/>
          <path id="path4752" class="cls-5" d="M179,154.8a5,5,0,0,0-5,5h0v176a5,5,0,0,0,5,5,5.1,5.1,0,0,0,5-5h0v-176a5,5,0,0,0-5-5Z"/>
          <path id="path4754" class="cls-6" d="M199,166.6a5,5,0,0,0-5,5h0V342.4a5,5,0,0,0,5,5h0a5,5,0,0,0,5-5h0V171.6a5.1,5.1,0,0,0-5-5Z"/>
          <path id="path4756" class="cls-7" d="M219,180.6a5,5,0,0,0-5,5V358.2a5,5,0,0,0,5,5,5.1,5.1,0,0,0,5-5V185.6A5.1,5.1,0,0,0,219,180.6Z"/>
          <path id="path4758" class="cls-8" d="M239,191.5a5,5,0,0,0-5,5V330.7a5,5,0,0,0,10,0h0V196.5a5.1,5.1,0,0,0-5-5Z"/>
          <path id="path4760" class="cls-4" d="M259,202.3a5,5,0,0,0-5,5h0V328.8a5,5,0,0,0,5,5h0a5.1,5.1,0,0,0,5-5V207.3a5.1,5.1,0,0,0-5-5Z"/>
          <path id="path4762" class="cls-9" d="M279,184.6a5,5,0,0,0-5,5V321.1a5,5,0,0,0,5,5,5,5,0,0,0,5-5V189.6a5.1,5.1,0,0,0-5-5Z"/>
          <path id="path4764" class="cls-10" d="M299,170.4a5,5,0,0,0-5,5h0V329.7a5,5,0,0,0,5,5,5.1,5.1,0,0,0,5-5h0V175.4a5,5,0,0,0-5-5Z"/>
          <path id="path4766" class="cls-11" d="M319,163.7a5,5,0,0,0-5,5h0V344.8a5,5,0,0,0,5,5h0a5.1,5.1,0,0,0,5-5V168.7a5,5,0,0,0-5-5Z"/>
          <path id="path4768" class="cls-12" d="M339,226.3a5,5,0,0,0-5,5V350.1a5,5,0,0,0,5,5,5,5,0,0,0,5-5V231.3A5.1,5.1,0,0,0,339,226.3Z"/>
          <path id="path4770" class="cls-4" d="M359,231.5a5,5,0,0,0-5,5h0v63.1a5,5,0,0,0,5,5h0a5,5,0,0,0,5-5h0V236.5a5,5,0,0,0-5-5Z"/>
          <path id="path4772" class="cls-4" d="M379,237.9a5,5,0,0,0-5,5h0v50.3a5,5,0,0,0,5,5h0a5.1,5.1,0,0,0,5-5V242.9A5.1,5.1,0,0,0,379,237.9Z"/>
          <path id="path4774" class="cls-4" d="M399,243.4a5,5,0,0,0-5,5v39.3a5,5,0,0,0,5,5,5,5,0,0,0,5-5V248.4A5,5,0,0,0,399,243.4Z"/>
          <path id="path4776" class="cls-4" d="M419,249.2a5,5,0,0,0-5,5v27.7a5,5,0,0,0,5,5,5,5,0,0,0,5-5h0V254.2a5,5,0,0,0-5-5Z"/>
          <path id="path4778" class="cls-4" d="M439,250.6a4.9,4.9,0,0,0-5,4.9h0v25.1a4.9,4.9,0,0,0,5,4.9h0a5,5,0,0,0,5-4.9V255.5A5,5,0,0,0,439,250.6Z"/>
          <path id="path4780" class="cls-4" d="M459,214.6a5,5,0,0,0-5,5v96.9a5,5,0,0,0,5,5,5,5,0,0,0,5-5V219.6a5,5,0,0,0-5-5Z"/>
          <path id="path4782" class="cls-4" d="M479,183.3a5,5,0,0,0-5,5V347.8a5,5,0,0,0,5,5,5.1,5.1,0,0,0,5-5h0V188.3a5.1,5.1,0,0,0-5-5Z"/>
        </g>
      </g>
    </g>
  </g>
</svg>
